<svg xmlns="http://www.w3.org/2000/svg" viewBox="0 0 32 32" fill="none">
  <!-- Background circle -->
  <circle cx="16" cy="16" r="15" fill="#2563eb" stroke="#1d4ed8" stroke-width="2"/>
  
  <!-- Document icon -->
  <rect x="9" y="7" width="14" height="18" rx="1" fill="white"/>
  <rect x="9" y="7" width="14" height="3" rx="1" fill="#dbeafe"/>
  
  <!-- Dollar sign for grants -->
  <path d="M16 12v1.5m0 5V20m-2-8.5a2 2 0 0 1 2-2h0a2 2 0 0 1 2 2v0a2 2 0 0 1-2 2h-1a2 2 0 0 0-2 2v0a2 2 0 0 0 2 2h0a2 2 0 0 0 2-2" 
        stroke="#2563eb" stroke-width="1.5" stroke-linecap="round" stroke-linejoin="round" fill="none"/>
</svg>
